<?xml version="1.0" encoding="UTF-8"?> <!-- Generator: Adobe Illustrator 23.0.0, SVG Export Plug-In . SVG Version: 6.00 Build 0) --> <svg xmlns="http://www.w3.org/2000/svg" xmlns:xlink="http://www.w3.org/1999/xlink" version="1.1" id="Layer_1" x="0px" y="0px" viewBox="0 0 600 600" style="enable-background:new 0 0 600 600;" xml:space="preserve"> <style type="text/css"> .st0{opacity:0.62;} .st1{fill:#E2F1F8;} .st2{fill:url(#SVGID_1_);} .st3{fill:url(#SVGID_2_);} .st4{fill:url(#SVGID_3_);} .st5{fill:url(#SVGID_4_);} .st6{fill:url(#SVGID_5_);} .st7{fill:url(#SVGID_6_);} </style> <g> <g transform="translate(300,300)" class="st0"> <g> <path class="st1" d="M33.3,261.3c-88.6,12.2-172,7.6-238.9-49.8c-98.7-84.7-110.7-213.6-76-345.2 c20.1-76.4,90.7-142.8,157.7-132.1c69.3,13.8,89.7,59.9,102.3,103.6c31.6,109,135.7,95.8,217.9,82.6 c95.8-19.2,111.6,55,82.6,133.6S148.6,239.1,33.3,261.3z"></path> </g> </g> <circle class="st1" cx="580.6" cy="278.9" r="20.1"></circle> <circle class="st1" cx="72.5" cy="65.2" r="20.1"></circle> <circle class="st1" cx="439.2" cy="515" r="20.1"></circle> <circle class="st1" cx="38.5" cy="418.8" r="20.1"></circle> </g> <g> <linearGradient id="SVGID_1_" gradientUnits="userSpaceOnUse" x1="308.9114" y1="99.3772" x2="177.0691" y2="399.6847"> <stop offset="0" style="stop-color:#00C0FF"></stop> <stop offset="1" style="stop-color:#007CDB"></stop> </linearGradient> <path class="st2" d="M259.1,200.9c-2.4,0-4.3-1.9-4.3-4.3c0-19,15.5-34.5,34.5-34.5c2.4,0,4.3,1.9,4.3,4.3s-1.9,4.3-4.3,4.3 c-14.3,0-26,11.6-26,26C263.4,199,261.5,200.9,259.1,200.9z"></path> <linearGradient id="SVGID_2_" gradientUnits="userSpaceOnUse" x1="373.6048" y1="122.6179" x2="234.441" y2="439.6021"> <stop offset="0" style="stop-color:#00C0FF"></stop> <stop offset="1" style="stop-color:#007CDB"></stop> </linearGradient> <path class="st3" d="M343.8,340c-42.4,0-76.9-34.5-76.9-76.9c0-3.2,0.3-6.5,0.8-10.6l0.2-1.3l-1.2-0.5 c-21.9-9.2-36.1-30.5-36.1-54.1c0-32.4,26.4-58.7,58.7-58.7c4.1,0,8.4,0.5,12.7,1.4l1.3,0.3l0.6-1.1c8.9-15.3,25.3-24.8,42.9-24.8 c27.4,0,49.7,22.3,49.7,49.7c0,11.8-4.3,23.2-12.1,32.3l-1.3,1.5l1.7,1.1c22.5,14.2,35.9,38.5,35.9,64.9 C420.7,305.5,386.2,340,343.8,340z M343.8,194.8c-37.7,0-68.3,30.6-68.3,68.3c0,37.7,30.6,68.3,68.3,68.3 c37.7,0,68.3-30.6,68.3-68.3C412.1,225.5,381.5,194.8,343.8,194.8z M289.4,146.4c-27.7,0-50.2,22.5-50.2,50.2 c0,19.1,11.2,36.8,28.6,45.2l1.8,0.9l0.6-2c9.1-29.9,35.1-51.1,66.1-54.1l2-0.2l-0.5-2C332.4,162.1,312.4,146.4,289.4,146.4z M346.9,122.2c-13.7,0-26.4,6.8-34.1,18.3l-1.2,1.7l1.9,0.9c17.3,7.8,29.8,23.5,33.4,42l0.3,1.3l1.4,0.1c9,0.6,17.6,2.6,25.5,6 l1.1,0.5l0.8-0.9c7.7-7.8,11.9-18,11.9-28.8C387.9,140.7,369.5,122.2,346.9,122.2z"></path> <linearGradient id="SVGID_3_" gradientUnits="userSpaceOnUse" x1="399.065" y1="137.3314" x2="262.6031" y2="448.1613"> <stop offset="0" style="stop-color:#00C0FF"></stop> <stop offset="1" style="stop-color:#007CDB"></stop> </linearGradient> <path class="st4" d="M343.8,315.8c-2.4,0-4.3-1.9-4.3-4.3v-7.8h-1.8c-12.4,0-22.4-10.1-22.4-22.4c0-2.4,1.9-4.3,4.3-4.3 s4.3,1.9,4.3,4.3c0,7.6,6.2,13.9,13.9,13.9h1.8v-13.9c0-2.4,1.9-4.3,4.3-4.3s4.3,1.9,4.3,4.3v13.9h1.8c7.6,0,13.9-6.2,13.9-13.9 c0-7.6-6.2-13.9-13.9-13.9h-12.1c-12.4,0-22.4-10.1-22.4-22.4c0-12.4,10.1-22.4,22.4-22.4h1.8v-7.8c0-2.4,1.9-4.3,4.3-4.3 s4.3,1.9,4.3,4.3v7.8h1.8c12.4,0,22.4,10.1,22.4,22.4c0,2.4-1.9,4.3-4.3,4.3c-2.4,0-4.3-1.9-4.3-4.3c0-7.6-6.2-13.9-13.9-13.9 h-12.1c-7.6,0-13.9,6.2-13.9,13.9c0,7.6,6.2,13.9,13.9,13.9h1.8V245c0-2.4,1.9-4.3,4.3-4.3s4.3,1.9,4.3,4.3v13.9h1.8 c12.4,0,22.4,10.1,22.4,22.4c0,12.4-10.1,22.4-22.4,22.4h-1.8v7.8C348.1,313.9,346.2,315.8,343.8,315.8z"></path> <linearGradient id="SVGID_4_" gradientUnits="userSpaceOnUse" x1="403.5845" y1="139.1555" x2="264.5407" y2="455.8665"> <stop offset="0" style="stop-color:#00C0FF"></stop> <stop offset="1" style="stop-color:#007CDB"></stop> </linearGradient> <path class="st5" d="M313.8,485c-8.5,0-17-2.1-24.5-6.1l-76.1-40.1c-6.3-3.3-13.4-5.1-20.5-5.1c-3.6,0-7.2,0.4-10.7,1.3l-39.7,9.9 c-1.3,0.3-2.7,0.5-4,0.5c-3.6,0-7.1-1.2-10-3.5c-4-3.1-6.3-7.9-6.3-12.9v-76.6c0-8.3,6.2-15.3,14.5-16.3l71.6-8.4 c2.9-0.3,5.8-0.5,8.8-0.5l2,0c10.8,0.2,21.2,2.7,31.1,7.3l56.9,26.9c4.3,2,8.9,3.1,13.6,3.1c0.8,0,1.6,0,2.3-0.1l13.3-0.9 c0.7,0,1.3-0.1,2-0.1c7.3,0,14.2,2.7,19.5,7.6c3.4,3.2,6.1,7.3,7.6,11.7l0.5,1.6L448,363c2.2-0.6,4.5-0.9,6.7-0.9 c5.9,0,11.5,1.9,16.2,5.6c6.5,5.1,10.3,12.7,10.3,21c0,10-5.5,19-14.3,23.6L338,479.1C330.6,483,322.2,485,313.8,485z M192.5,425.2 c8.5,0,17,2.1,24.5,6.1l76.1,40.1c6.3,3.3,13.4,5.1,20.6,5.1c7,0,14.1-1.7,20.3-4.9l128.9-66.8c6-3.1,9.7-9.2,9.7-15.9 c0-5.6-2.5-10.8-7-14.3c-3.2-2.5-7-3.8-11-3.8c-1.5,0-3,0.2-4.5,0.6l-83.9,21.8v1.4c0,6.4-3.8,12.3-9.7,15l-17.8,8 c-8.3,3.7-17.5,5.7-26.6,5.7c-8.3,0-16.4-1.6-24-4.6l-30.5-12.2c-1.1-0.4-1.9-1.2-2.4-2.3c-0.4-1-0.5-2.2,0-3.3 c0.7-1.7,2.2-2.7,4-2.7c0.5,0,1.1,0.1,1.6,0.3l30.5,12.2c6.6,2.7,13.6,4,20.8,4c7.9,0,15.9-1.7,23.1-4.9l17.9-8 c2.8-1.2,4.6-4,4.6-7.1V392c0-5.6-2.2-10.8-6.3-14.5c-3.7-3.4-8.5-5.3-13.6-5.3c-0.5,0-1,0-1.4,0.1l-13.3,0.9 c-0.9,0.1-1.9,0.1-2.8,0.1c-6,0-12-1.3-17.4-3.9l-56.9-26.9c-8.6-4.1-17.9-6.3-27.6-6.5l-1.6,0c-2.7,0-5.3,0.1-7.9,0.5l-71.6,8.4 c-3.9,0.5-6.9,3.8-6.9,7.8v76.6c0,2.4,1.1,4.7,3,6.2c1.4,1.1,3.1,1.6,4.8,1.6c0.6,0,1.3-0.1,1.9-0.2l39.7-9.9 C184,425.7,188.3,425.2,192.5,425.2z"></path> <linearGradient id="SVGID_5_" gradientUnits="userSpaceOnUse" x1="268.1047" y1="136.5536" x2="152.4249" y2="400.0466"> <stop offset="0" style="stop-color:#00C0FF"></stop> <stop offset="1" style="stop-color:#007CDB"></stop> </linearGradient> <path class="st6" d="M156.2,375.2c-2.4,0-4.3-1.9-4.3-4.3s1.9-4.3,4.3-4.3h18c2.4,0,4.3,1.9,4.3,4.3s-1.9,4.3-4.3,4.3H156.2z"></path> <linearGradient id="SVGID_6_" gradientUnits="userSpaceOnUse" x1="275.4485" y1="144.2118" x2="159.7686" y2="407.7047"> <stop offset="0" style="stop-color:#00C0FF"></stop> <stop offset="1" style="stop-color:#007CDB"></stop> </linearGradient> <path class="st7" d="M156.2,399.6c-2.4,0-4.3-1.9-4.3-4.3c0-2.4,1.9-4.3,4.3-4.3h18c2.4,0,4.3,1.9,4.3,4.3c0,2.4-1.9,4.3-4.3,4.3 H156.2z"></path> </g> </svg> 