<?xml version="1.0" encoding="UTF-8"?> <!-- Generator: Adobe Illustrator 23.0.0, SVG Export Plug-In . SVG Version: 6.00 Build 0) --> <svg xmlns="http://www.w3.org/2000/svg" xmlns:xlink="http://www.w3.org/1999/xlink" version="1.1" id="Layer_1" x="0px" y="0px" viewBox="0 0 600 600" style="enable-background:new 0 0 600 600;" xml:space="preserve"> <style type="text/css"> .st0{opacity:0.62;} .st1{fill:#E2F1F8;} .st2{fill:url(#SVGID_1_);} .st3{fill:url(#SVGID_2_);} </style> <g> <g transform="translate(300,300)" class="st0"> <g> <path class="st1" d="M33.3,261.3c-88.6,12.2-172,7.6-238.9-49.8c-98.7-84.7-110.7-213.6-76-345.2 c20.1-76.4,90.7-142.8,157.7-132.1c69.3,13.8,89.7,59.9,102.3,103.6c31.6,109,135.7,95.8,217.9,82.6 c95.8-19.2,111.6,55,82.6,133.6S148.6,239.1,33.3,261.3z"></path> </g> </g> <circle class="st1" cx="580.6" cy="278.9" r="20.1"></circle> <circle class="st1" cx="72.5" cy="65.2" r="20.1"></circle> <circle class="st1" cx="439.2" cy="515" r="20.1"></circle> <circle class="st1" cx="38.5" cy="418.8" r="20.1"></circle> </g> <g> <linearGradient id="SVGID_1_" gradientUnits="userSpaceOnUse" x1="428.4625" y1="160.2547" x2="213.2215" y2="493.6443"> <stop offset="0" style="stop-color:#00C0FF"></stop> <stop offset="1" style="stop-color:#007CDB"></stop> </linearGradient> <path class="st2" d="M302.2,483.2c-63.4,0-102.4-5.1-130.4-16.9c-33.1-14-49.9-39.4-49.9-75.6c0-29.5,15.3-67.5,43-106.8 c23.8-33.8,53.8-63.7,82.3-82.1l1.7-1.1l-1.6-1.2c-4.9-3.5-9.2-7-13.2-10.5c-11.1-9.8-21.3-20.5-21.3-33.1v-2.2l1.8-1.3 c0.1-0.1,9.2-6.3,23.6-10.8l1.6-0.5l-6.2-11.2l4.5-1.8c0.3-0.1,28.2-11,64-11c35.9,0,63.8,10.9,64,11l4.5,1.8l-6.2,11.2l1.6,0.5 c14.4,4.5,23.5,10.7,23.6,10.8l1.8,1.3v2.2c0,12.6-10.3,23.4-21.3,33.2c-4,3.5-8.3,6.9-13.2,10.5l-1.6,1.2l1.7,1.1 c28.5,18.4,58.5,48.3,82.4,82.1c27.7,39.3,43,77.3,43,106.8c0,36.2-16.8,61.6-49.9,75.6C404.6,478.1,365.6,483.2,302.2,483.2z M215.6,238.1c-15.9,15.2-31,32.7-43.7,50.7c-25.9,36.8-41.4,74.9-41.4,101.9c0,33.8,13.8,54.6,44.6,67.7 c26.5,11.2,65.7,16.2,127,16.2c61.3,0,100.5-5,127-16.2c30.9-13,44.6-33.9,44.6-67.7c0-27-15.5-65.1-41.4-101.9 c-24.8-35.1-56.9-66.4-85.9-83.6l-0.3-0.2h-81.9l-0.4,0.5c-3,3.5-7.6,10.1-12.5,21.5c-6.7,15.5-14.7,42.5-14.7,83.8 c0,1.6-0.8,3-2.1,3.8c-0.7,0.4-1.4,0.6-2.2,0.6c-0.8,0-1.5-0.2-2.2-0.6c-1.3-0.8-2.1-2.2-2.1-3.8c0-32.9,4.9-61.5,14.7-84.8 l-2.3-1.5c-15.6,16.7-26.8,37.4-33.2,61.5c-0.4,1.6-1.5,2.8-3,3.3c-0.4,0.1-0.8,0.2-1.1,0.2c-1.2,0-2.3-0.5-3.1-1.3 c-1.1-1.1-1.5-2.8-1-4.3c4.3-16,10.6-30.7,18.8-44L215.6,238.1z M334.3,196.4h11.9l0.3-0.2c6.2-4,12.6-8.8,18.1-13.7 c8.8-7.8,15.6-17.1,17.2-23.8l0.2-1l-0.9-0.5c-5.4-3.2-12-5.9-19.8-8.1l-1.1-0.3L334.3,196.4z M302.2,125.6 c-19.8,0-38.2,2.9-54.6,8.5l-1.5,0.5l33.8,61.8h44.6l33.8-61.8l-1.6-0.5C340.4,128.4,322,125.6,302.2,125.6z M243,149.1 c-7.8,2.2-14.5,4.9-19.8,8.1l-0.9,0.5l0.2,1c1.6,6.7,8.4,16,17.2,23.8c5.6,4.9,12,9.7,18,13.6l0.3,0.2l0.6,0.1h11.5l-26-47.6 L243,149.1z"></path> <linearGradient id="SVGID_2_" gradientUnits="userSpaceOnUse" x1="417.6435" y1="159.9837" x2="208.0258" y2="484.6633"> <stop offset="0" style="stop-color:#00C0FF"></stop> <stop offset="1" style="stop-color:#007CDB"></stop> </linearGradient> <path class="st3" d="M298.7,400.1v-9.6l-1.3-0.1c-20-1.3-32.7-11.9-33.5-27.7H277c1.4,8.9,8.9,15.1,20.1,16.3l1.5,0.2v-36.6l-7.7-2 c-16.2-4.1-24.7-13.6-24.7-27.4c0-16.4,11.6-27.3,31.1-29.1l1.3-0.1v-10.2h7.4V284l1.3,0.1c17.9,1.6,30,12.3,31.1,27.4h-12.8 c-1-8.3-8-14.6-18-15.8l-1.6-0.2v34.8l8,1.8c18,4.4,26.4,13.3,26.4,28.1c0,17.4-12.1,28.4-33.2,30.2l-1.3,0.1v9.7H298.7z M306.1,379.3l1.5-0.1c12.4-0.7,19.9-7.2,19.9-17.3c0-9.3-6.2-14.9-19.7-17.6l-1.7-0.3V379.3z M297.2,295.6 c-10.3,0.6-17.7,7.4-17.7,16.3c0,8.4,6.2,14.2,17.5,16.5l1.7,0.3v-33.2L297.2,295.6z"></path> </g> </svg> 