<?xml version="1.0" encoding="UTF-8"?> <!-- Generator: Adobe Illustrator 23.0.0, SVG Export Plug-In . SVG Version: 6.00 Build 0) --> <svg xmlns="http://www.w3.org/2000/svg" xmlns:xlink="http://www.w3.org/1999/xlink" version="1.1" id="Layer_1" x="0px" y="0px" viewBox="0 0 600 600" style="enable-background:new 0 0 600 600;" xml:space="preserve"> <style type="text/css"> .st0{opacity:0.62;} .st1{fill:#E2F1F8;} .st2{fill:url(#SVGID_1_);} .st3{fill:url(#SVGID_2_);} .st4{fill:url(#SVGID_3_);} </style> <g> <g transform="translate(300,300)" class="st0"> <g> <path class="st1" d="M33.3,261.3c-88.6,12.2-172,7.6-238.9-49.8c-98.7-84.7-110.7-213.6-76-345.2 c20.1-76.4,90.7-142.8,157.7-132.1c69.3,13.8,89.7,59.9,102.3,103.6c31.6,109,135.7,95.8,217.9,82.6 c95.8-19.2,111.6,55,82.6,133.6S148.6,239.1,33.3,261.3z"></path> </g> </g> <circle class="st1" cx="580.6" cy="278.9" r="20.1"></circle> <circle class="st1" cx="72.5" cy="65.2" r="20.1"></circle> <circle class="st1" cx="439.2" cy="515" r="20.1"></circle> <circle class="st1" cx="38.5" cy="418.8" r="20.1"></circle> </g> <g> <linearGradient id="SVGID_1_" gradientUnits="userSpaceOnUse" x1="462.4377" y1="116.6447" x2="139.097" y2="478.4445"> <stop offset="0" style="stop-color:#00C0FF"></stop> <stop offset="1" style="stop-color:#007CDB"></stop> </linearGradient> <path class="st2" d="M291.5,460c-0.6,0-1.1-0.1-1.6-0.3c-1.7-0.6-3-2-3.5-3.7L274,407l-6.7,5.2l-1,0.3c0,0-1.8,0.4-3.6,0.4l-0.8,0 c-0.8-0.1-1.8-0.3-2.8-0.4l-0.8-0.2L230,429c-0.4,0.2-1.3,0.6-1.7,0.7c-0.5,0.1-1.2,0.2-2,0.2c-2.5-0.1-4.7-0.6-7.1-1.7 c-6.3-2.8-14.2-9-24.8-19.6c-10.5-10.5-16.7-18.4-19.6-24.8c-1.1-2.4-1.6-4.6-1.7-6.7c0-1,0-1.9,0.2-2.5c0.1-0.4,0.5-1.3,0.8-1.9 l16.6-27.9l-0.2-0.9c-0.2-1-0.4-2.1-0.4-3c-0.1-2.1,0.4-4.5,0.4-4.5l0.2-0.7l0.6-0.6l5-6.2l-49.4-12.4c-1.7-0.4-3.1-1.8-3.7-3.4 c-0.6-1.7-0.2-3.6,0.9-5l37.7-45.2c0.9-1.2,2.2-1.9,3.7-2l65.9,0l0.7-0.8c30.5-36.7,54.2-63.6,70.5-79.9 c14.3-14.3,30.9-26.2,49.4-35.4c52.4-26.1,107.3-27.1,107.9-27.1l5.6-0.2l-0.2,5.6c0,0.6-1.4,55.7-27.3,107.9 c-9.3,18.7-21.2,35.3-35.1,49.4c-15.4,15.4-41.5,38.4-79.9,70.3l-0.8,0.7v65.6c0,1.6-0.7,3.1-2,4.1l-45.3,37.7 C293.8,459.6,292.7,460,291.5,460z M327.8,363.5c-17.8,14.7-32.6,26.6-43.6,35.3l-1.1,0.9l11.6,45.7l36.8-30.8v-54.1L327.8,363.5z M221.4,422l3.5-2.1l0.7-0.5l-0.1-0.3l0.4,0.1l0.9-0.5l19.4-11.6l-3.2-2c-7.9-4.9-16-11.6-24.8-20.4c-8.8-8.8-15.5-16.9-20.4-24.8 l-2-3.2l-12,20.3l0.2,0.9c0.1,0.3,0.1,0.4,0.6,1.6c1,2.3,4.8,9.2,17.2,21.6c9.9,9.8,19.7,16.7,23.1,18.7L221.4,422z M471.4,129.3 c-18.4,1-55.3,5.5-94.9,25.2c-17.7,8.9-33.4,20-46.5,33.2c-16,16-39.9,43.2-71.1,80.7c-0.6,1.1-1,1.6-1.6,2 c-30,36.2-55.7,68.6-55.9,68.9l-0.6,0.7l0.1,0.9c0.1,1.1,0.3,2.7,1.3,5.3c1.9,4.8,7.6,15.2,23.6,31.1c15,15,25.1,21,30.9,23.3 c2.6,1.1,4.2,1.2,5.2,1.3l0.9,0.1l0.9-0.6c0.3-0.2,32.4-25.7,69.1-56.1c0.6-0.6,1-1,1.4-1.2c39.4-32.7,65.9-55.9,81.2-71.2 c13.2-13.2,24.4-28.9,33.2-46.5c19.6-39.5,24.2-76.4,25.2-94.9l0.1-2.5L471.4,129.3z M157.6,308.3l45.9,11.6l4.6-5.7 c8.3-10.4,18.9-23.7,31.4-39l3-3.7h-54.1L157.6,308.3z"></path> <linearGradient id="SVGID_2_" gradientUnits="userSpaceOnUse" x1="465.4486" y1="126.7243" x2="157.1652" y2="471.6758"> <stop offset="0" style="stop-color:#00C0FF"></stop> <stop offset="1" style="stop-color:#007CDB"></stop> </linearGradient> <path class="st3" d="M374.4,264c-19.5,0-35.4-15.9-35.4-35.4s15.9-35.4,35.4-35.4s35.4,15.9,35.4,35.4S394,264,374.4,264z M374.4,203.7c-13.7,0-24.9,11.2-24.9,24.9s11.2,24.9,24.9,24.9s24.9-11.2,24.9-24.9S388.1,203.7,374.4,203.7z"></path> <linearGradient id="SVGID_3_" gradientUnits="userSpaceOnUse" x1="440.5549" y1="129.0964" x2="132.3479" y2="473.9623"> <stop offset="0" style="stop-color:#00C0FF"></stop> <stop offset="1" style="stop-color:#007CDB"></stop> </linearGradient> <path class="st4" d="M120.6,482.4v-5.3c0-17.5,1-29.4,3.2-38.6c2.1-8.6,5.7-15.5,10.7-20.4c5.2-5.1,10.8-7.8,16.8-10.7 c4.7-2.3,9.5-4.6,14.7-8.3l6.2,8.2c-7.1,5.2-13.4,8.4-18.5,11c-4.9,2.5-8.9,4.5-11.7,7.4c-3.7,3.6-5.9,8-7.7,15.2 c-1.4,5.7-2,15.2-2.4,27.8l-0.1,2.4l2.4-0.1c23.5-0.9,37.5-4.5,44.2-11.3c3.3-3.4,5.5-7.9,8-13.1c2.3-4.8,4.9-10.1,9-16l8.6,6.3 c-2.7,4-4.6,8.1-6.5,12.1c-3,6.4-5.9,12.4-11.5,18.1c-10.4,10.6-28.4,15.1-60.1,15.1H120.6z"></path> </g> </svg> 