<?xml version="1.0" encoding="UTF-8"?> <!-- Generator: Adobe Illustrator 23.0.0, SVG Export Plug-In . SVG Version: 6.00 Build 0) --> <svg xmlns="http://www.w3.org/2000/svg" xmlns:xlink="http://www.w3.org/1999/xlink" version="1.1" id="Layer_1" x="0px" y="0px" viewBox="0 0 600 600" style="enable-background:new 0 0 600 600;" xml:space="preserve"> <style type="text/css"> .st0{opacity:0.62;} .st1{fill:#E2F1F8;} .st2{fill:url(#SVGID_1_);} .st3{fill:url(#SVGID_2_);} .st4{fill:url(#SVGID_3_);} .st5{fill:url(#SVGID_4_);} .st6{fill:url(#SVGID_5_);} </style> <g> <g transform="translate(300,300)" class="st0"> <g> <path class="st1" d="M33.3,261.3c-88.6,12.2-172,7.6-238.9-49.8c-98.7-84.7-110.7-213.6-76-345.2 c20.1-76.4,90.7-142.8,157.7-132.1c69.3,13.8,89.7,59.9,102.3,103.6c31.6,109,135.7,95.8,217.9,82.6 c95.8-19.2,111.6,55,82.6,133.6S148.6,239.1,33.3,261.3z"></path> </g> </g> <circle class="st1" cx="580.6" cy="278.9" r="20.1"></circle> <circle class="st1" cx="72.5" cy="65.2" r="20.1"></circle> <circle class="st1" cx="439.2" cy="515" r="20.1"></circle> <circle class="st1" cx="38.5" cy="418.8" r="20.1"></circle> </g> <g> <linearGradient id="SVGID_1_" gradientUnits="userSpaceOnUse" x1="4478.1475" y1="-4690.2778" x2="-2578.9165" y2="3752.9951"> <stop offset="0" style="stop-color:#00C0FF"></stop> <stop offset="1" style="stop-color:#007CDB"></stop> </linearGradient> <path class="st2" d="M376.1,478.7c-17.1,0-33.5-6.7-46-18.9c-2-2-2.4-5.1-0.9-7.2c1-1.3,2.7-2.1,4.4-2.1c1.6,0,3,0.6,4.1,1.8 c8.9,10,23.2,15.8,39.1,15.8h20.9l-9.2-9c-16-15.7-24.8-36.6-24.8-59V244.4c0-16.8-13.1-29.9-29.9-29.9H140.1 c-16.8,0-29.9,13.1-29.9,29.9v193.7c0,16.8,13.1,29.9,29.9,29.9h151.4c1.4,0,2.8,0.6,3.8,1.7c1,1.1,1.6,2.6,1.5,4 c-0.2,2.6-3,4.9-6,4.9H140.1c-22.4,0-40.6-18.2-40.6-40.6V244.4c0-22.4,18.2-40.6,40.6-40.6h86.2v-58.1c0-16.5,13.5-30,30-30H450 c16.5,0,30,13.5,30,30v155.3c0,22.1,9,43.7,24.8,59c1.9,1.9,1.8,4.4,1.1,6c-0.9,2.1-2.7,3.3-4.9,3.3h-8.5 c-14.7,0-28.5-5.7-38.9-16.1l-3.7-3.7l-3.7,3.7c-10.2,10.2-24.4,16.1-38.9,16.1h-33.1v30.2c0,31,19.7,58.5,49,68.3 c2.7,0.9,4.2,3.8,3.4,6.5l-0.1,0.4c-0.5,2.5-3.1,3.7-5.5,3.7H376.1z M461.3,345.9c4.1,4.1,8.9,7.3,14.2,9.5l14.3,6l-7.8-13.4 c-8.3-14.3-12.6-30.5-12.6-46.8V145.8c0-10.5-8.8-19.3-19.3-19.3H256.3c-10.5,0-19.3,8.8-19.3,19.3v58.1h96.8 c22.4,0,40.6,18.2,40.6,40.6v114.4h33.1c11.7,0,23.1-4.7,31.4-13l11.2-11.2L461.3,345.9z"></path> <linearGradient id="SVGID_2_" gradientUnits="userSpaceOnUse" x1="409.3752" y1="67.1422" x2="55.4606" y2="490.5757"> <stop offset="0" style="stop-color:#00C0FF"></stop> <stop offset="1" style="stop-color:#007CDB"></stop> </linearGradient> <path class="st3" d="M200,330.1c-6.8,0-12.4-5.6-12.4-12.4s5.6-12.4,12.4-12.4c6.8,0,12.4,5.6,12.4,12.4S206.8,330.1,200,330.1z"></path> <linearGradient id="SVGID_3_" gradientUnits="userSpaceOnUse" x1="479.8163" y1="67.1422" x2="125.9017" y2="490.5757"> <stop offset="0" style="stop-color:#00C0FF"></stop> <stop offset="1" style="stop-color:#007CDB"></stop> </linearGradient> <path class="st4" d="M270.4,330.1c-6.8,0-12.4-5.6-12.4-12.4s5.6-12.4,12.4-12.4s12.4,5.6,12.4,12.4S277.2,330.1,270.4,330.1z"></path> <linearGradient id="SVGID_4_" gradientUnits="userSpaceOnUse" x1="615.583" y1="-87.2919" x2="-26.181" y2="680.5329"> <stop offset="0" style="stop-color:#00C0FF"></stop> <stop offset="1" style="stop-color:#007CDB"></stop> </linearGradient> <path class="st5" d="M236.6,387.8c-14.5,0-27-10.6-29.5-24.8h59.1C263.6,377.2,251.1,387.8,236.6,387.8z"></path> <linearGradient id="SVGID_5_" gradientUnits="userSpaceOnUse" x1="557.9194" y1="365.3423" x2="405.3517" y2="547.8786"> <stop offset="0" style="stop-color:#00C0FF"></stop> <stop offset="1" style="stop-color:#007CDB"></stop> </linearGradient> <path class="st6" d="M467.7,478.7c-2.9,0-5.3-2.4-5.3-5.3c0-2.9,2.4-5.3,5.3-5.3c2.9,0,5.3,2.4,5.3,5.3 C473,476.3,470.6,478.7,467.7,478.7z"></path> </g> </svg> 